<?xml version="1.0" encoding="UTF-8" standalone="no"?>
<svg
   viewBox="0 0 192 192"
   width="192"
   height="192"
   version="1.1"
   id="svg4"
   sodipodi:docname="icon.svg"
   xmlns:inkscape="http://www.inkscape.org/namespaces/inkscape"
   xmlns:sodipodi="http://sodipodi.sourceforge.net/DTD/sodipodi-0.dtd"
   xmlns="http://www.w3.org/2000/svg"
   xmlns:svg="http://www.w3.org/2000/svg">
  <sodipodi:namedview
     id="namedview4"
     pagecolor="#ffffff"
     bordercolor="#000000"
     borderopacity="0.25"
     inkscape:showpageshadow="2"
     inkscape:pageopacity="0.0"
     inkscape:pagecheckerboard="0"
     inkscape:deskcolor="#d1d1d1" />
  <defs
     id="defs2">
    <filter
       id="glow"
       x="-0.053592847"
       y="-0.20372476"
       width="1.1071857"
       height="1.4074495">
      <feGaussianBlur
         stdDeviation="3"
         result="coloredBlur"
         id="feGaussianBlur1" />
      <feMerge
         id="feMerge2">
        <feMergeNode
           in="coloredBlur"
           id="feMergeNode1" />
        <feMergeNode
           in="SourceGraphic"
           id="feMergeNode2" />
      </feMerge>
    </filter>
  </defs>
  <!-- Background -->
  <rect
     width="192"
     height="192"
     fill="#12121a"
     id="rect2" />
  <!-- Logo text with glow effect -->
  <g
     id="text4"
     font-family="Monaco, Menlo, monospace"
     text-anchor="middle"
     fill="#00fff9"
     filter="url(#glow)"
     aria-label="&lt;π/&gt;">
    <path
       d="M 28.816113,96.333984 52.148144,84.667969 v 3.716797 L 36.206738,96.3125 52.148144,104.32617 V 108 Z"
       id="path4" />
    <path
       d="M 75.947167,80.982422 V 108 H 70.651268 V 80.982422 h -0.708007 q -2.832032,0 -6.088868,1.897461 v -5.352539 q 1.246094,-0.453125 2.152344,-0.651367 0.934571,-0.198243 2.293946,-0.339844 1.359375,-0.169922 2.010742,-0.169922 h 24.751953 v 4.616211 h -5.295899 v 16.397461 q 0,6.088867 2.095704,10.620117 h -5.40918 Q 84.499901,103.49707 84.499901,97.521484 V 80.982422 Z"
       id="path5" />
    <path
       d="m 107.74131,109.00977 h -3.93164 l 21.20507,-35.341801 h 3.80274 z M 163.1624,96.333984 139.83037,108 v -3.7168 l 15.96289,-7.927731 -15.96289,-8.013672 v -3.673828 z"
       id="path6" />
  </g>
</svg>
