<svg xmlns="http://www.w3.org/2000/svg" width="907.97" height="308.75" viewBox="0 0 240.234 81.69"><g aria-label="WSπ" style="fill:#00fff9;stroke-width:2.06799"><path d="M161.848 691.875h38.334l58.125-218.958h.833l57.917 218.958h38.541l75.834-303.75H382.89l-47.917 215.833h-.833l-58.75-215.833h-33.333l-58.959 215.833h-.833l-47.708-215.833H86.015Zm306.569-73.75-30.209 34.583q48.542 41.667 116.042 41.667 104.375-1.25 106.667-88.333 0-32.292-20.208-56.667-20.417-24.792-63.125-30.625-21.667-2.708-34.167-4.792-22.5-4.166-32.709-15-10.208-10.625-10.208-23.75.417-21.875 15.208-32.916 14.167-10.625 35.417-10.625 41.042.833 75.209 23.333l25.625-37.917q-41.875-30.208-98.542-31.458-47.084.417-72.709 24.583-26.458 24.375-26.458 64.167 0 33.125 21.042 56.25 20.416 22.5 59.583 28.958 21.875 3.125 40.209 5.625 40 6.875 39.583 40.834-.833 41.458-60 42.291-50-.416-86.25-30.208z" style="font-family:&quot;DIN Alternate&quot;;-inkscape-font-specification:&quot;DIN Alternate Bold&quot;;baseline-shift:baseline" transform="matrix(.26458 0 0 .26458 -22.758 -102.03)"/><path d="M728.569 446.292h-42.875v-57.167h308.291v57.167h-43.75v167.416q0 20.709 22.75 20.709h21v57.458h-26.833q-16.917 0-30.917-3.792-14-4.083-24.5-12.541-10.5-8.75-16.625-22.75-5.833-14-5.833-34.417V446.292h-99.75v245.583h-60.958z" style="font-size:597.333px;font-family:&quot;DIN Alternate&quot;;-inkscape-font-specification:&quot;DIN Alternate Bold&quot;;baseline-shift:baseline" transform="matrix(.26458 0 0 .26458 -22.758 -102.03)"/></g></svg>